<?xml version="1.0" encoding="UTF-8" standalone="no"?>
<svg width="130px" height="23px" viewBox="0 0 130 23" version="1.1" xmlns="http://www.w3.org/2000/svg" xmlns:xlink="http://www.w3.org/1999/xlink">
    <!-- Generator: Sketch 42 (36781) - http://www.bohemiancoding.com/sketch -->
    <title>Group</title>
    <desc>Created with Sketch.</desc>
    <defs></defs>
    <g id="Page-1" stroke="none" stroke-width="1" fill="none" fill-rule="evenodd">
        <g id="Desktop-Landscape-Copy-4" transform="translate(-201.000000, -94.000000)" fill="#464C4F">
            <g id="Group" transform="translate(201.000000, 94.000000)">
                <path d="M40.7573242,14.8251953 L40.0615234,16.300293 C39.7213525,17.0301143 39.5512695,17.5279935 39.5512695,17.7939453 C39.5512695,17.9980479 39.7460918,18.1000977 40.1357422,18.1000977 C40.1914065,18.1062826 40.3089184,18.1155598 40.4882812,18.1279297 L40.6645508,18.137207 L40.6645508,19 L37,19 L37,18.137207 L37.1762695,18.1279297 C37.6710637,18.0970051 37.9818516,18.0166022 38.1086426,17.8867188 C38.2354336,17.7568353 38.5122049,17.228032 38.9389648,16.300293 L44.0507812,5.14892578 L45.0063477,5.14892578 L50.1552734,16.3095703 C50.6067731,17.2311244 50.8959141,17.7537429 51.0227051,17.8774414 C51.1494961,18.0011399 51.4726537,18.0846352 51.9921875,18.1279297 L52.112793,18.137207 L52.112793,19 L46.3886719,19 L46.3886719,18.137207 L46.5649414,18.1279297 C47.3442422,18.0784503 47.7400716,17.957846 47.7524414,17.7661133 C47.7648113,17.5805655 47.5885435,17.0888712 47.2236328,16.2910156 L46.5463867,14.8251953 L40.7573242,14.8251953 Z M41.184082,13.9067383 L46.1103516,13.9067383 L43.6054688,8.57226562 L41.184082,13.9067383 Z M52.5117188,19 L52.5117188,18.137207 L52.6879883,18.1279297 C53.3126659,18.0846352 53.6868483,17.9779468 53.8105469,17.8078613 C53.9342454,17.6377758 53.9960938,17.1383505 53.9960938,16.3095703 L53.9960938,7.95068359 C53.9960938,7.12190341 53.9357916,6.62402427 53.8151855,6.45703125 C53.6945795,6.29003823 53.3188508,6.18180363 52.6879883,6.13232422 L52.5117188,6.12304688 L52.5117188,5.26953125 L57.0112305,5.26953125 L59.0058594,5.24169922 L59.7387695,5.23242188 C61.897309,5.23242188 63.5579369,5.80451902 64.7207031,6.94873047 C65.8772844,8.09294192 66.4555664,9.72573809 66.4555664,11.847168 C66.4555664,14.0242622 65.866461,15.7606543 64.6882324,17.0563965 C63.5100039,18.3521386 61.931325,19 59.9521484,19 L52.5117188,19 Z M56.8442383,6.17871094 L56.8442383,16.3095703 C56.8442383,17.0641314 56.9602039,17.5388174 57.1921387,17.7336426 C57.4240734,17.9284678 57.9884395,18.0258789 58.8852539,18.0258789 C60.400561,18.0258789 61.535478,17.5109915 62.2900391,16.4812012 C63.0446001,15.4514109 63.421875,13.9067486 63.421875,11.847168 C63.421875,9.79377229 63.0028525,8.33569767 62.1647949,7.47290039 C61.3267373,6.61010311 59.9057717,6.17871094 57.9018555,6.17871094 L56.8442383,6.17871094 Z M72.9404297,19.1113281 L69.2851562,11.5410156 C68.8522114,10.6998656 68.5414235,10.1880706 68.3527832,10.0056152 C68.1641429,9.8231599 67.8348005,9.71647151 67.3647461,9.68554688 L67.1884766,9.67626953 L67.1884766,8.81347656 L72.9125977,8.81347656 L72.9125977,9.67626953 L72.7363281,9.68554688 C72.0807259,9.72884136 71.7436524,9.85253804 71.7250977,10.0566406 C71.7127278,10.1988939 71.9106425,10.6936807 72.3188477,11.5410156 L74.3413086,15.7529297 L76.4287109,11.5410156 C76.843101,10.7122354 77.050293,10.1988942 77.050293,10.0009766 C77.050293,9.83398354 76.7194044,9.72884136 76.0576172,9.68554688 L75.890625,9.67626953 L75.890625,8.81347656 L79.6665039,8.81347656 L79.6665039,9.67626953 L79.4902344,9.68554688 C79.0078101,9.71647151 78.6831063,9.81079023 78.5161133,9.96850586 C78.3491203,10.1262215 78.0367861,10.6411089 77.5791016,11.5131836 L73.784668,19.1113281 L72.9404297,19.1113281 Z M85.5390625,19.2319336 C83.893872,19.2319336 82.5996955,18.7572476 81.6564941,17.8078613 C80.7132928,16.8584751 80.2416992,15.5581137 80.2416992,13.9067383 C80.2416992,12.2553628 80.7132928,10.9550015 81.6564941,10.0056152 C82.5996955,9.05622898 83.893872,8.58154297 85.5390625,8.58154297 C87.1780681,8.58154297 88.4691522,9.05622898 89.4123535,10.0056152 C90.3555548,10.9550015 90.8271484,12.2553628 90.8271484,13.9067383 C90.8271484,15.5581137 90.3555548,16.8584751 89.4123535,17.8078613 C88.4691522,18.7572476 87.1780681,19.2319336 85.5390625,19.2319336 Z M85.5390625,18.2578125 C86.2936236,18.2578125 86.8579897,17.8944535 87.2321777,17.1677246 C87.6063658,16.4409957 87.793457,15.3540111 87.793457,13.9067383 C87.793457,12.4532805 87.6063658,11.3647497 87.2321777,10.6411133 C86.8579897,9.91747685 86.2936236,9.55566406 85.5390625,9.55566406 C84.7845014,9.55566406 84.2185891,9.91747685 83.8413086,10.6411133 C83.4640281,11.3647497 83.2753906,12.4532805 83.2753906,13.9067383 C83.2753906,15.3540111 83.4640281,16.4409957 83.8413086,17.1677246 C84.2185891,17.8944535 84.7845014,18.2578125 85.5390625,18.2578125 Z M100.735352,18.7587891 C99.6777291,19.0742203 98.6634163,19.2319336 97.6923828,19.2319336 C95.9173088,19.2319336 94.5210826,18.7479703 93.5036621,17.7800293 C92.4862417,16.8120883 91.9775391,15.4808027 91.9775391,13.7861328 C91.9775391,12.165682 92.4599561,10.8931524 93.4248047,9.96850586 C94.3896533,9.04385931 95.7193926,8.58154297 97.4140625,8.58154297 C98.4840548,8.58154297 99.5787704,8.73616382 100.698242,9.04541016 L100.698242,11.6708984 L99.3808594,11.6708984 L99.371582,11.5039062 C99.3221026,10.7307904 99.2293301,10.260743 99.0932617,10.09375 C98.7469058,9.66080513 98.2119177,9.44433594 97.4882812,9.44433594 C96.6223915,9.44433594 95.9729839,9.79687147 95.5400391,10.5019531 C95.1070942,11.2070348 94.890625,12.2646414 94.890625,13.6748047 C94.890625,15.1158926 95.179766,16.1982386 95.7580566,16.921875 C96.3363473,17.6455114 97.2006778,18.0073242 98.3510742,18.0073242 C99.0623408,18.0073242 99.857092,17.8341489 100.735352,17.487793 L100.735352,18.7587891 Z M108.268555,17.8217773 C107.779945,18.2918318 107.28052,18.6443673 106.770264,18.8793945 C106.260007,19.1144217 105.738935,19.2319336 105.207031,19.2319336 C104.304032,19.2319336 103.555667,18.9520699 102.961914,18.392334 C102.368161,17.8325981 102.071289,17.1259808 102.071289,16.2724609 C102.071289,15.2766877 102.448564,14.4819366 103.203125,13.8881836 C103.654625,13.5294578 104.189613,13.2805183 104.808105,13.1413574 C105.426598,13.0021966 106.29866,12.9326172 107.424316,12.9326172 L107.888184,12.9326172 L107.888184,11.6987305 C107.888184,10.8266558 107.778403,10.2329117 107.558838,9.91748047 C107.339273,9.6020492 106.93262,9.44433594 106.338867,9.44433594 C105.615231,9.44433594 105.070965,9.63915821 104.706055,10.0288086 C104.582356,10.1525071 104.501953,10.566891 104.464844,11.2719727 L104.455566,11.4482422 L102.961914,11.4482422 L102.961914,9.38867188 C104.13705,8.85058325 105.36474,8.58154297 106.64502,8.58154297 C107.931484,8.58154297 108.917965,8.84749083 109.604492,9.37939453 C110.291019,9.91129823 110.634277,10.6751252 110.634277,11.6708984 L110.634277,16.1425781 C110.634277,16.9342487 110.693033,17.4723293 110.810547,17.7568359 C110.921876,18.0475275 111.135252,18.1928711 111.450684,18.1928711 C111.543457,18.1928711 111.651692,18.1743166 111.775391,18.137207 L111.895996,19 C111.419757,19.1546232 110.952802,19.2319336 110.495117,19.2319336 C109.994138,19.2319336 109.558107,19.1144217 109.187012,18.8793945 C108.815916,18.6443673 108.509767,18.2918318 108.268555,17.8217773 Z M107.888184,17.1445312 L107.888184,13.7675781 L107.526367,13.7675781 C106.610998,13.7675781 105.922935,13.9515769 105.462158,14.3195801 C105.001381,14.6875832 104.770996,15.2395797 104.770996,15.9755859 C104.770996,16.5198595 104.917886,16.9543441 105.21167,17.2790527 C105.505454,17.6037614 105.899737,17.7661133 106.394531,17.7661133 C106.672853,17.7661133 106.935708,17.7135422 107.183105,17.6083984 C107.430503,17.5032547 107.665526,17.3486338 107.888184,17.1445312 Z M119.141602,18.9165039 C118.566403,19.1267914 118.003583,19.2319336 117.453125,19.2319336 C116.308914,19.2319336 115.450768,18.9489774 114.878662,18.3830566 C114.306556,17.8171358 114.020508,16.9682674 114.020508,15.8364258 L114.020508,9.73193359 L112.758789,9.73193359 L112.758789,8.81347656 L114.020508,8.81347656 L114.020508,7.09716797 L116.766602,6.61474609 L116.766602,8.81347656 L119.020996,8.81347656 L119.020996,9.73193359 L116.766602,9.73193359 L116.766602,15.9013672 C116.766602,16.8105514 116.856282,17.4104803 117.035645,17.7011719 C117.215007,17.9918634 117.586097,18.137207 118.148926,18.137207 C118.458172,18.137207 118.789061,18.0660814 119.141602,17.9238281 L119.141602,18.9165039 Z M129.383789,18.6010742 C128.171543,19.0216492 126.99024,19.2319336 125.839844,19.2319336 C124.101879,19.2319336 122.7273,18.7433317 121.716064,17.7661133 C120.704829,16.7888949 120.199219,15.462248 120.199219,13.7861328 C120.199219,12.2399011 120.65535,10.985926 121.567627,10.0241699 C122.479904,9.06241381 123.668938,8.58154297 125.134766,8.58154297 C127.967462,8.58154297 129.383789,10.3194813 129.383789,13.7954102 L129.383789,13.9995117 L123.019531,13.9995117 C123.019531,15.2859765 123.319496,16.2508106 123.919434,16.894043 C124.519371,17.5372754 125.419265,17.8588867 126.619141,17.8588867 C127.435551,17.8588867 128.357091,17.6362327 129.383789,17.190918 L129.383789,18.6010742 Z M123.084473,13.1367188 L126.674805,13.1367188 L126.674805,12.8120117 C126.674805,11.5812113 126.551108,10.7122421 126.303711,10.2050781 C126.056314,9.69791413 125.62956,9.44433594 125.023438,9.44433594 C124.380205,9.44433594 123.896242,9.75203143 123.571533,10.3674316 C123.246825,10.9828319 123.084473,11.9059183 123.084473,13.1367188 Z" id="ADvocate"></path>
                <path d="M3.18072,0 L3.18072,3.17898 L0.00145,3.17898 L0.00145,22.62 L28.99826,22.62 L28.99826,0 L3.18072,0 Z M27.40906,21.03051 L1.59094,21.03051 L1.59094,4.76847 L3.18043,4.76847 L3.18043,19.44102 L4.76992,19.44102 L4.76992,1.58949 L27.40877,1.58949 L27.40877,21.03051 L27.40906,21.03051 Z" id="Shape" fill-rule="nonzero"></path>
                <rect id="Rectangle-path" fill-rule="nonzero" x="6.3597" y="3.17898" width="9.24984" height="7.33613"></rect>
                <rect id="Rectangle-path" fill-rule="nonzero" x="17.19961" y="3.17898" width="8.61967" height="1.38562"></rect>
                <rect id="Rectangle-path" fill-rule="nonzero" x="17.19961" y="6.15438" width="8.61967" height="1.38562"></rect>
                <rect id="Rectangle-path" fill-rule="nonzero" x="17.19961" y="9.12949" width="8.61967" height="1.38562"></rect>
                <rect id="Rectangle-path" fill-rule="nonzero" x="6.3597" y="12.1046" width="19.45929" height="1.38591"></rect>
                <rect id="Rectangle-path" fill-rule="nonzero" x="6.3597" y="15.08" width="19.45929" height="1.38562"></rect>
                <rect id="Rectangle-path" fill-rule="nonzero" x="6.3597" y="18.0554" width="19.45929" height="1.38562"></rect>
            </g>
        </g>
    </g>
</svg>